HIERARCHY
ROOT hip
{
  OFFSET 0 0 0
  CHANNELS 6 Xposition Yposition Zposition Zrotation Yrotation Xrotation
  JOINT abdomen
  {
    OFFSET 0 20.6881 -0.73152
    CHANNELS 3 Zrotation Xrotation Yrotation
    JOINT chest
    {
      OFFSET 0 11.7043 -0.48768
      CHANNELS 3 Zrotation Xrotation Yrotation
      JOINT neck
      {
        OFFSET 0 22.1894 -2.19456
        CHANNELS 3 Zrotation Xrotation Yrotation
        JOINT head
        {
          OFFSET -0.24384 7.07133 1.2192
          CHANNELS 3 Zrotation Xrotation Yrotation
          JOINT leftEye
          {
            OFFSET 4.14528 8.04674 8.04672
            CHANNELS 3 Zrotation Xrotation Yrotation
            End Site
            {
              OFFSET 1 0 0
            }
          }
          JOINT rightEye
          {
            OFFSET -3.6576 8.04674 8.04672
            CHANNELS 3 Zrotation Xrotation Yrotation
            End Site
            {
              OFFSET 1 0 0
            }
          }
        }
      }
      JOINT rCollar
      {
        OFFSET -2.68224 19.2634 -4.8768
        CHANNELS 3 Zrotation Xrotation Yrotation
        JOINT rShldr
        {
          OFFSET -8.77824 -1.95073 1.46304
          CHANNELS 3 Zrotation Xrotation Yrotation
          JOINT rForeArm
          {
            OFFSET -28.1742 -1.7115 0.48768
            CHANNELS 3 Zrotation Xrotation Yrotation
            JOINT rHand
            {
              OFFSET -22.5879 0.773209 7.07136
              CHANNELS 3 Zrotation Xrotation Yrotation
              JOINT rThumb1
              {
                OFFSET -1.2192 -0.487915 3.41376
                CHANNELS 3 Zrotation Xrotation Yrotation
                JOINT rThumb2
                {
                  OFFSET -3.37035 -0.52449 3.41376
                  CHANNELS 3 Zrotation Xrotation Yrotation
                  End Site
                  {
                    OFFSET -1.78271 -1.18214 1.43049
                  }
                }
              }
              JOINT rIndex1
              {
                OFFSET -7.75947 0.938293 5.60832
                CHANNELS 3 Zrotation Xrotation Yrotation
                JOINT rIndex2
                {
                  OFFSET -2.54057 -0.884171 1.56538
                  CHANNELS 3 Zrotation Xrotation Yrotation
                  End Site
                  {
                    OFFSET -1.62519 -0.234802 1.16502
                  }
                }
              }
              JOINT rMid1
              {
                OFFSET -8.24714 1.18213 3.41376
                CHANNELS 3 Zrotation Xrotation Yrotation
                JOINT rMid2
                {
                  OFFSET -3.10165 -0.590103 1.0647
                  CHANNELS 3 Zrotation Xrotation Yrotation
                  End Site
                  {
                    OFFSET -2.48547 -0.328903 0.83742
                  }
                }
              }
              JOINT rRing1
              {
                OFFSET -8.82822 0.546677 1.51678
                CHANNELS 3 Zrotation Xrotation Yrotation
                JOINT rRing2
                {
                  OFFSET -2.60934 -0.819778 -0.0198488
                  CHANNELS 3 Zrotation Xrotation Yrotation
                  End Site
                  {
                    OFFSET -2.33842 -0.294052 0.168128
                  }
                }
              }
              JOINT rPinky1
              {
                OFFSET -8.27202 -0.0477905 -0.4584
                CHANNELS 3 Zrotation Xrotation Yrotation
                JOINT rPinky2
                {
                  OFFSET -1.82734 -0.647385 -0.700984
                  CHANNELS 3 Zrotation Xrotation Yrotation
                  End Site
                  {
                    OFFSET -1.69225 -0.51767 -0.607171
                  }
                }
              }
            }
          }
        }
      }
      JOINT lCollar
      {
        OFFSET 2.68224 19.2634 -4.8768
        CHANNELS 3 Zrotation Xrotation Yrotation
        JOINT lShldr
        {
          OFFSET 8.77824 -1.95073 1.46304
          CHANNELS 3 Zrotation Xrotation Yrotation
          JOINT lForeArm
          {
            OFFSET 28.1742 -1.7115 0.48768
            CHANNELS 3 Zrotation Xrotation Yrotation
            JOINT lHand
            {
              OFFSET 22.5879 0.773209 7.07136
              CHANNELS 3 Zrotation Xrotation Yrotation
              JOINT lThumb1
              {
                OFFSET 1.2192 -0.487915 3.41376
                CHANNELS 3 Zrotation Xrotation Yrotation
                JOINT lThumb2
                {
                  OFFSET 3.37035 -0.52449 3.41376
                  CHANNELS 3 Zrotation Xrotation Yrotation
                  End Site
                  {
                    OFFSET 1.78271 -1.18214 1.43049
                  }
                }
              }
              JOINT lIndex1
              {
                OFFSET 7.75947 0.938293 5.60832
                CHANNELS 3 Zrotation Xrotation Yrotation
                JOINT lIndex2
                {
                  OFFSET 2.54057 -0.884171 1.56538
                  CHANNELS 3 Zrotation Xrotation Yrotation
                  End Site
                  {
                    OFFSET 1.62519 -0.234802 1.16502
                  }
                }
              }
              JOINT lMid1
              {
                OFFSET 8.24714 1.18213 3.41376
                CHANNELS 3 Zrotation Xrotation Yrotation
                JOINT lMid2
                {
                  OFFSET 3.10165 -0.590103 1.0647
                  CHANNELS 3 Zrotation Xrotation Yrotation
                  End Site
                  {
                    OFFSET 2.48547 -0.328903 0.83742
                  }
                }
              }
              JOINT lRing1
              {
                OFFSET 8.82822 0.546677 1.51678
                CHANNELS 3 Zrotation Xrotation Yrotation
                JOINT lRing2
                {
                  OFFSET 2.60934 -0.819778 -0.0198488
                  CHANNELS 3 Zrotation Xrotation Yrotation
                  End Site
                  {
                    OFFSET 2.33842 -0.294052 0.168128
                  }
                }
              }
              JOINT lPinky1
              {
                OFFSET 8.27202 -0.0477905 -0.4584
                CHANNELS 3 Zrotation Xrotation Yrotation
                JOINT lPinky2
                {
                  OFFSET 1.82734 -0.647385 -0.700984
                  CHANNELS 3 Zrotation Xrotation Yrotation
                  End Site
                  {
                    OFFSET 1.69225 -0.51767 -0.607171
                  }
                }
              }
            }
          }
        }
      }
    }
  }
  JOINT rButtock
  {
    OFFSET -8.77824 4.35084 1.2192
    CHANNELS 3 Zrotation Xrotation Yrotation
    JOINT rThigh
    {
      OFFSET 0 -1.70687 -2.19456
      CHANNELS 3 Zrotation Xrotation Yrotation
      JOINT rShin
      {
        OFFSET 0 -36.8199 0.73152
        CHANNELS 3 Zrotation Xrotation Yrotation
        JOINT rFoot
        {
          OFFSET 0.73152 -45.1104 -5.12064
          CHANNELS 3 Zrotation Xrotation Yrotation
          End Site
          {
            OFFSET -1.1221 -3.69964 12.103
          }
        }
      }
    }
  }
  JOINT lButtock
  {
    OFFSET 8.77824 4.35084 1.2192
    CHANNELS 3 Zrotation Xrotation Yrotation
    JOINT lThigh
    {
      OFFSET 0 -1.70687 -2.19456
      CHANNELS 3 Zrotation Xrotation Yrotation
      JOINT lShin
      {
        OFFSET 0 -36.8199 0.73152
        CHANNELS 3 Zrotation Xrotation Yrotation
        JOINT lFoot
        {
          OFFSET -0.73152 -45.1104 -5.12064
          CHANNELS 3 Zrotation Xrotation Yrotation
          End Site
          {
            OFFSET 1.1221 -3.69964 12.103
          }
        }
      }
    }
  }
}
MOTION
Frames:	6
Frame Time:	0.00833333
22.026799999999998 63.910599999999995 13.3359 -171.538746 14.149027 -178.104763 4.845798 22.127653 43.878287 -5.574923 -12.133783 -47.827555 9.146663 25.617557 111.732999 -38.544897 22.202452 -118.992424 0.002217 -0.0 -0.000172 -0.003458 -0.0 0.000554 -14.938742 44.240785 16.829222 59.628335 -61.007125 67.684569 3.098475 -33.882424 96.199584 -8.980411 -2.807983 -2.969104 -178.927093 -16.453895 89.421506 53.447228 -71.863172 40.143494 -138.763767 4.487506 115.031581 8.760177 0.485565 -9.148563 -160.825395 -7.142011 143.316099 -163.291152 -4.785899 142.967135 -145.121959 1.975155 -179.749402 10.058872 -0.124426 -9.008198 -152.694937 39.283769 -147.93733 -128.546757 -28.013506 -125.499765 9.652178 34.83606 -11.199651 108.119006 15.402163 -109.981742 168.684835 -6.507106 68.080417 5.743722 0.626677 2.074877 103.199197 36.33005 -60.111069 -81.873036 -49.138537 -39.442616 151.353106 -17.158336 -121.133329 -3.644182 14.715977 6.924642 161.51781 -9.304429 -143.625434 7.50472 26.110589 -6.445203 1.4e-05 -0.060879 0.018906 -10.322294 0.169302 0.044844 138.442991 -6.23038 135.660115 147.335896 12.127237 141.868011 -0.004152 0.000313 -0.002076 -30.270897 -29.829147 -16.742986 -7.557288 69.171697 -68.192837 -42.122824 -65.679153 54.3818 -0.000559 0.000313 0.000719 69.098985 -47.172357 -105.646171 -49.187898 -73.052394 80.95583 140.22654 11.543472 -50.74862
21.699099999999998 64.7362 12.851199999999999 -170.521957 8.884285 -177.983047 5.091325 18.139242 129.256535 -9.357911 3.003229 -129.302894 -10.891372 27.489274 -101.306073 42.995023 19.203194 80.664435 0.001183 0.0 0.003708 0.000276 -0.0 -0.003823 0.070757 -0.427869 -0.094414 39.758412 -38.132993 41.529152 3.24463 -7.890904 94.965455 -9.057639 -0.768048 -2.68767 114.538653 -50.245376 55.721853 -160.903291 -10.678099 116.679912 60.461196 -70.52385 15.71122 89.848138 -64.756595 33.001736 -36.037181 51.722161 29.834228 92.012301 -78.478288 62.841567 -145.120134 0.185415 -179.186846 -154.172158 -12.523501 -177.503468 12.988923 44.344216 10.761548 -95.099643 -51.680852 -93.658947 44.039713 64.187316 -46.709831 -67.221246 -33.673256 -88.098867 5.748104 -12.743288 -110.671017 5.266775 -1.3218 2.225126 178.927655 -16.453617 -89.422087 13.402414 -48.860807 0.48211 155.194135 -24.29984 -122.142695 -1.435194 19.719509 5.387986 161.519159 -9.304351 -143.624856 163.302692 -4.784582 -142.96416 72.757266 -72.143226 89.772236 -13.900036 29.735907 0.545614 -32.012184 83.320652 -6.234956 2.6392 -9.715774 4.372606 -179.993142 75.749671 -0.007076 146.768743 42.257998 23.272021 -1.719493 70.399186 -110.896355 155.456307 45.022742 -74.993941 0.004418 -0.001187 0.002209 70.455609 -48.637919 -104.919173 -49.770464 -79.000569 33.371923 156.020051 -15.059605 -117.202251
21.1396 65.5625 12.1779 -169.552582 3.20484 -177.755274 5.638413 20.228948 38.154056 -5.367171 -11.151614 -35.26306 -10.712109 24.879484 -87.977397 43.066671 9.366151 70.603433 0.003293 -0.0 -0.002654 -0.001614 -0.0 0.003593 -155.614182 -4.236477 161.990782 23.93341 38.136531 -16.061837 -68.884313 -0.51272 163.428755 75.67768 -79.021593 58.060718 -174.193365 -11.857373 89.870225 -77.896453 6.947621 25.283988 -140.164322 2.326386 115.878129 -169.12735 -26.699622 118.443097 7.904484 -24.807534 -3.013877 -163.685698 -5.753495 143.430802 -74.839211 72.962285 92.827465 -96.576261 82.859183 105.631217 -145.174579 12.067496 -141.822713 -162.412615 55.863922 -146.671724 158.514564 -30.702034 -167.038854 44.871411 -19.494399 44.421493 -17.192084 3.866275 147.841618 174.699478 9.058816 -141.97103 176.759295 -14.369411 -89.675565 110.930085 16.469423 -49.799119 18.148075 23.163582 -12.575291 -21.611753 -18.66152 1.519772 -68.984697 -80.15376 -40.579855 -2.897128 0.368451 -0.211371 0.001539 0.06378 -0.020051 -6.666936 31.041148 -4.970448 157.326271 57.246168 150.515054 -1.720883 0.383548 1.542276 0.003545 0.001244 0.001773 -23.905174 -21.795887 0.0 38.758173 54.950123 45.486347 -2.938453 41.33371 -86.396916 0.003545 0.001244 0.001773 71.266669 -50.258866 -104.615573 -37.533402 -80.33208 45.157689 6.063899 31.918002 103.069233
20.4124 66.5424 11.401 -169.28893 -2.811004 -177.92915 5.641869 14.859634 158.932651 -4.796529 6.276246 -152.885479 -9.368975 18.633069 -52.62696 35.438784 -13.580441 43.102577 -0.00031 0.0 -0.002336 -0.00031 0.0 -0.002336 -155.809412 -5.555348 162.266998 24.31041 27.425935 -13.286584 7.579935 -75.707168 -120.701898 -176.556987 -4.029436 142.900511 -121.365226 30.330136 71.95802 23.52559 -37.978174 26.705007 -27.172157 30.468928 19.889801 -161.183796 -7.784114 110.913665 44.053137 -75.293848 17.456568 -176.79455 -42.208356 142.690826 -145.121556 0.267911 -179.212115 10.813683 7.846965 -8.049506 -156.862787 55.541724 -150.329779 -148.92453 13.656593 -142.449844 155.54845 -3.804458 -161.899379 -142.272989 -5.010813 164.902748 2.894277 7.570816 -112.570228 6.51133 1.030708 2.168072 -15.487674 -15.37405 0.297525 -10.367217 -31.866293 21.052761 0.328037 0.529954 -0.185082 86.487764 47.208204 -67.728859 173.038144 -44.087718 -144.930817 159.082251 7.65742 -141.237547 0.060529 -3.508387 1.104893 -9.971114 -62.53978 9.20566 80.93953 -51.225904 79.359583 -32.439558 74.742169 -3.003299 0.000581 -0.000389 -0.000747 -20.359471 -18.700521 -49.173126 -44.647632 51.921078 160.459208 34.899681 62.207853 -119.008865 -179.987192 75.750031 -0.008763 -144.886378 0.651182 -180.0 -56.780615 -85.709132 -78.662054 -112.938452 -28.075882 161.339573
19.592100000000002 67.40650000000001 10.5187 -169.359374 -9.109255 -178.117 5.034485 13.496036 -180.0 -2.062245 7.075804 -172.746745 -9.096958 18.051061 -48.153158 33.65571 -16.676413 40.566006 0.003985 -0.0 -0.000519 -0.001684 -0.0 0.000304 -159.211153 -46.728579 170.137309 -59.666396 85.352832 94.325956 165.405198 -2.523085 53.856903 -171.143999 13.053416 140.5161 -12.926281 12.051662 3.309815 -92.056684 11.099489 85.120566 11.98012 -21.347162 -5.062179 91.562031 -61.125864 37.330733 -151.477072 17.842189 137.539895 -163.203815 -4.795836 142.989722 -145.120444 0.266917 -179.214097 11.423913 17.996 -6.904652 -86.001568 -50.497089 -84.370548 -24.168348 -40.901108 -26.196972 155.809614 -5.555391 -162.266817 -133.554072 21.537196 168.816098 162.500551 -45.273327 -44.107629 -174.215172 -22.742848 -143.036061 169.571734 -7.25396 -89.929998 38.360495 -23.4874 -6.861532 -11.981034 -21.346967 5.06106 64.262513 49.138003 -51.358615 22.005966 41.040589 -17.008262 -13.313121 -30.018679 1.350647 -0.000779 -0.01843 0.006222 77.411855 78.795226 -90.824252 -12.988285 44.34417 -10.76353 148.562001 13.063557 143.676836 -0.000163 -0.000151 -0.0 -18.037096 -16.264101 -85.143779 -56.877803 8.602076 57.565054 75.934634 0.551492 -15.042349 -0.000456 -0.000151 -0.000228 64.800523 -52.576561 -23.382741 -77.253291 -0.928932 -0.666014 -47.939126 76.104525 136.652462
18.7574 68.2073 9.4627 -169.551844 -15.560117 -178.317665 3.656561 17.299329 -0.0 2.574438 -11.392191 9.178608 2.210361 13.075047 21.995253 -15.94642 -27.615293 -37.736463 0.002335 0.0 0.00039 0.002335 0.0 0.00039 4.210268 -43.443101 -8.382692 -2.132258 24.771624 37.441775 -175.943327 18.32021 57.451932 -177.221183 -5.168925 143.020607 -166.744331 -4.418502 89.781586 5.055551 -53.983606 13.021253 -152.103408 -18.557153 121.367637 8.447526 5.992036 -8.933441 -160.672418 -6.667975 143.245178 -11.852077 33.637352 9.679742 -0.016652 -1.323087 -0.416252 8.237955 21.969787 3.163247 -86.000983 -50.496805 -84.370703 -21.718535 -39.011013 -23.857609 155.613749 -4.236249 -161.991577 51.443066 -3.35294 8.67425 -111.511192 -44.433719 116.455394 47.616004 62.552959 -28.729254 -81.277165 -49.994869 -32.239546 152.893423 -10.986273 -120.082128 -129.220615 -75.530521 -76.34657 60.641444 54.765693 -49.705086 -2.1003 -6.305369 1.081714 55.995712 62.33447 -49.198976 0.006808 3.55908 -1.119236 148.486685 -76.767661 171.067912 -7.651654 23.805766 -6.771721 3.269305 -12.963608 4.739528 -179.991247 75.748877 -0.009031 147.378258 56.40891 126.911204 69.651436 -10.507581 102.586868 -80.094965 40.095598 162.549675 0.000901 0.000745 0.00045 61.100383 -54.298925 -24.26874 -78.009465 -0.318622 -21.763167 148.030505 -6.56438 -151.306373
